<?xml version="1.0" encoding="UTF-8"?>
<svg width="1700px" height="3000px" xmlns="http://www.w3.org/2000/svg" xmlns:xlink="http://www.w3.org/1999/xlink">
	<title>Basketball court dimensions</title>
	<desc>Basketball court. written by maix (Marian Sigler). License: CreativeCommons ShareAlike (http://creativecommons.org/licenses/sa/1.0/)</desc>
	<style type="text/css">
		rect, circle, line, path { fill:none; stroke:black; stroke-width:10px; }
		.basket { stroke:black }
		.freethrow_lane_line_dashed { stroke-dasharray:0,175,10,85,40,85,10,85,10,999; }
	</style>
  <g transform="translate(100.5, 100.5)">
		<rect id="court_frame" width="1500" height="2800" x="0" y="0" />
		<line id="center_line" x1="-15" y1="1400" x2="1515" y2="1400" />
		<circle id="center_circle" cx="750" cy="1400" r="180" />
		<line id="freethrow_line_a" x1="570" y1="580" x2="930" y2="580" />
		<line id="freethrow_line_b" x1="570" y1="2220" x2="930" y2="2220" />
<!--		<circle id="freethrow_circle_a" cx="750" cy="580" r="180" />-->
		<path id="freethrow_circle_a" d="M 930,580 C 930,679.36 849.36,760 750,760 C 650.64,760 570,679.36 570,580" />
<!--		<circle id="freethrow_circle_b" cx="750" cy="2220" r="180" />-->
		<path id="freethrow_circle_b" d="M 570,2220 C 570,2120.64 650.64,2040 750,2040 C 849.36,2040 930,2120.64 930,2220" />
		<line id="freethrow_lane_line_a_left" x1="570" y1="580" x2="450" y2="0" />
		<line id="freethrow_lane_line_a_right" x1="930" y1="580" x2="1050" y2="0" />
		<line id="freethrow_lane_line_b_left" x1="570" y1="2220" x2="450" y2="2800" />
		<line id="freethrow_lane_line_b_right" x1="930" y1="2220" x2="1050" y2="2800" />
		<line id="freethrow_lane_line_a_left_dashes" class="freethrow_lane_line_dashed" x1="440" y1="0" x2="560" y2="580" />
		<line id="freethrow_lane_line_a_right_dashes" class="freethrow_lane_line_dashed" x1="1060" y1="0" x2="940" y2="580" />
		<line id="freethrow_lane_line_b_left_dashes" class="freethrow_lane_line_dashed" x1="440" y1="2800" x2="560" y2="2220" />
		<line id="freethrow_lane_line_b_right_dashes" class="freethrow_lane_line_dashed" x1="1060" y1="2800" x2="940" y2="2220" />
		<line id="big_circle_line_a_left" x1="125" y1="0" x2="125" y2="157.5" />
		<line id="big_circle_line_a_right" x1="1375" y1="0" x2="1375" y2="157.5" />
		<line id="big_circle_line_b_left" x1="125" y1="2800" x2="125" y2="2642.5" />
		<line id="big_circle_line_b_right" x1="1375" y1="2800" x2="1375" y2="2642.5" />
<!--		<circle id="big_circle_a" cx="750" cy="2642.5" r="625" />-->
		<path id="big_circle_a" d="M 125,2642.5 C 125,2297.5 405,2017.5 750,2017.5 C 1095,2017.5 1375,2297.5 1375,2642.5" />
<!--		<circle id="big_circle_b" cx="750" cy="157.5" r="625" />-->
		<path id="big_circle_b" d="M 1375,157.5 C 1375,502.5 1095,782.5 750,782.5 C 405,782.5 125,502.5 125,157.5" />
		<line id="basket_board_a" class="basket" x1="660" y1="120" x2="840" y2="120" />
		<line id="basket_board_b"  class="basket" x1="660" y1="2680" x2="840" y2="2680" />
		<line id="basket_holder_a" class="basket" x1="750" y1="120" x2="750" y2="150" />
		<line id="basket_holder_b" class="basket" x1="750" y1="2680" x2="750" y2="2650" />
		<circle id="basket_a" class="basket" cx="750" cy="175" r="25" />
		<circle id="basket_b" class="basket" cx="750" cy="2625" r="25" />
  </g>
</svg>
